<svg xmlns="http://www.w3.org/2000/svg" xmlns:xlink="http://www.w3.org/1999/xlink" width="500" zoomAndPan="magnify" viewBox="0 0 375 374.999991" height="500" preserveAspectRatio="xMidYMid meet" version="1.0"><defs><g/></defs><g fill="#000000" fill-opacity="1"><g transform="translate(3.820864, 209.918238)"><g><path d="M 74.515625 -42.71875 L 74.515625 -26.171875 C 72.546875 -17.109375 68.234375 -10.25 61.578125 -5.59375 C 54.921875 -0.9375 47.492188 1.390625 39.296875 1.390625 C 29.003906 1.390625 20.234375 -2.457031 12.984375 -10.15625 C 5.742188 -17.863281 2.125 -27.175781 2.125 -38.09375 C 2.125 -49.1875 5.664062 -58.550781 12.75 -66.1875 C 19.84375 -73.832031 28.691406 -77.65625 39.296875 -77.65625 C 51.679688 -77.65625 61.476562 -73.3125 68.6875 -64.625 L 57.328125 -52.140625 C 53.253906 -58.671875 47.582031 -61.9375 40.3125 -61.9375 C 34.945312 -61.9375 30.367188 -59.609375 26.578125 -54.953125 C 22.785156 -50.304688 20.890625 -44.6875 20.890625 -38.09375 C 20.890625 -31.625 22.785156 -26.09375 26.578125 -21.5 C 30.367188 -16.90625 34.945312 -14.609375 40.3125 -14.609375 C 44.75 -14.609375 48.613281 -15.945312 51.90625 -18.625 C 55.207031 -21.3125 56.859375 -24.875 56.859375 -29.3125 L 39.296875 -29.3125 L 39.296875 -42.71875 Z M 74.515625 -42.71875 "/></g></g></g><g fill="#000000" fill-opacity="1"><g transform="translate(71.757526, 209.918238)"><g><path d="M 10.03125 -5.640625 C 4.757812 -10.328125 2.125 -16.335938 2.125 -23.671875 C 2.125 -31.003906 4.863281 -37.023438 10.34375 -41.734375 C 15.832031 -46.453125 22.613281 -48.8125 30.6875 -48.8125 C 38.644531 -48.8125 45.347656 -46.4375 50.796875 -41.6875 C 56.253906 -36.945312 58.984375 -30.941406 58.984375 -23.671875 C 58.984375 -16.398438 56.316406 -10.40625 50.984375 -5.6875 C 45.648438 -0.96875 38.882812 1.390625 30.6875 1.390625 C 22.1875 1.390625 15.300781 -0.953125 10.03125 -5.640625 Z M 22.6875 -31.703125 C 20.5625 -29.609375 19.5 -26.925781 19.5 -23.65625 C 19.5 -20.394531 20.515625 -17.734375 22.546875 -15.671875 C 24.585938 -13.609375 27.273438 -12.578125 30.609375 -12.578125 C 33.804688 -12.578125 36.4375 -13.625 38.5 -15.71875 C 40.570312 -17.8125 41.609375 -20.460938 41.609375 -23.671875 C 41.609375 -26.929688 40.539062 -29.609375 38.40625 -31.703125 C 36.28125 -33.804688 33.679688 -34.859375 30.609375 -34.859375 C 27.460938 -34.859375 24.820312 -33.804688 22.6875 -31.703125 Z M 22.6875 -31.703125 "/></g></g></g><g fill="#000000" fill-opacity="1"><g transform="translate(124.165234, 209.918238)"><g/></g></g><g fill="#000000" fill-opacity="1"><g transform="translate(140.708445, 209.918238)"><g><path d="M 49.1875 -76.28125 L 49.1875 -61.015625 L 22.921875 -61.015625 L 22.921875 -45.859375 L 48.078125 -45.859375 L 48.078125 -30.609375 L 22.921875 -30.609375 L 22.921875 -15.25 L 49.1875 -15.25 L 49.1875 0 L 5.546875 0 L 5.546875 -76.28125 Z M 49.1875 -76.28125 "/></g></g></g><g fill="#000000" fill-opacity="1"><g transform="translate(185.628968, 209.918238)"><g><path d="M 17.5625 -47.421875 L 29.125 -21.640625 L 40.671875 -47.421875 L 60.09375 -47.421875 L 34.671875 0 L 23.578125 0 L -1.84375 -47.421875 Z M 17.5625 -47.421875 "/></g></g></g><g fill="#000000" fill-opacity="1"><g transform="translate(235.171215, 209.918238)"><g><path d="M 53.53125 -21.453125 L 19.140625 -21.453125 C 19.140625 -18.117188 20.21875 -15.648438 22.375 -14.046875 C 24.53125 -12.453125 26.875 -11.65625 29.40625 -11.65625 C 32.050781 -11.65625 34.144531 -12.007812 35.6875 -12.71875 C 37.226562 -13.425781 38.984375 -14.828125 40.953125 -16.921875 L 52.796875 -11 C 47.859375 -2.738281 39.660156 1.390625 28.203125 1.390625 C 21.046875 1.390625 14.910156 -1.054688 9.796875 -5.953125 C 4.679688 -10.859375 2.125 -16.757812 2.125 -23.65625 C 2.125 -30.5625 4.679688 -36.476562 9.796875 -41.40625 C 14.910156 -46.34375 21.046875 -48.8125 28.203125 -48.8125 C 35.722656 -48.8125 41.835938 -46.640625 46.546875 -42.296875 C 51.265625 -37.953125 53.625 -31.742188 53.625 -23.671875 C 53.625 -22.554688 53.59375 -21.816406 53.53125 -21.453125 Z M 19.59375 -30.515625 L 37.625 -30.515625 C 37.257812 -32.972656 36.289062 -34.863281 34.71875 -36.1875 C 33.144531 -37.519531 31.125 -38.1875 28.65625 -38.1875 C 25.945312 -38.1875 23.789062 -37.476562 22.1875 -36.0625 C 20.582031 -34.644531 19.71875 -32.796875 19.59375 -30.515625 Z M 19.59375 -30.515625 "/></g></g></g><g fill="#000000" fill-opacity="1"><g transform="translate(282.217741, 209.918238)"><g><path d="M 5.546875 0 L 5.546875 -47.421875 L 21.90625 -47.421875 L 21.90625 -42.4375 L 22.09375 -42.4375 C 26.34375 -46.6875 30.875 -48.8125 35.6875 -48.8125 C 38.03125 -48.8125 40.359375 -48.503906 42.671875 -47.890625 C 44.984375 -47.273438 47.203125 -46.316406 49.328125 -45.015625 C 51.453125 -43.722656 53.175781 -41.890625 54.5 -39.515625 C 55.820312 -37.148438 56.484375 -34.394531 56.484375 -31.25 L 56.484375 0 L 40.125 0 L 40.125 -26.8125 C 40.125 -29.28125 39.335938 -31.4375 37.765625 -33.28125 C 36.191406 -35.132812 34.144531 -36.0625 31.625 -36.0625 C 29.15625 -36.0625 26.914062 -35.101562 24.90625 -33.1875 C 22.90625 -31.28125 21.90625 -29.15625 21.90625 -26.8125 L 21.90625 0 Z M 5.546875 0 "/></g></g></g><g fill="#000000" fill-opacity="1"><g transform="translate(334.62546, 209.918238)"><g><path d="M 8.328125 -47.421875 L 8.328125 -65.09375 L 24.6875 -65.09375 L 24.6875 -47.421875 L 34.671875 -47.421875 L 34.671875 -34.953125 L 24.6875 -34.953125 L 24.6875 -19.875 C 24.6875 -15.5 25.921875 -13.3125 28.390625 -13.3125 C 29.003906 -13.3125 29.648438 -13.429688 30.328125 -13.671875 C 31.003906 -13.921875 31.523438 -14.171875 31.890625 -14.421875 L 32.453125 -14.796875 L 36.515625 -1.578125 C 33.003906 0.398438 29 1.390625 24.5 1.390625 C 21.414062 1.390625 18.765625 0.851562 16.546875 -0.21875 C 14.328125 -1.300781 12.644531 -2.75 11.5 -4.5625 C 10.363281 -6.382812 9.550781 -8.296875 9.0625 -10.296875 C 8.570312 -12.304688 8.328125 -14.453125 8.328125 -16.734375 L 8.328125 -34.953125 L 1.484375 -34.953125 L 1.484375 -47.421875 Z M 8.328125 -47.421875 "/></g></g></g></svg>